<?xml version="1.0" encoding="UTF-8"?>
<svg version="1.1" xmlns="http://www.w3.org/2000/svg" width="512" height="512">
<path d="M0 0 C1.01823853 0.00215515 2.03647705 0.0043103 3.08557129 0.00653076 C17.7097884 0.05623391 32.00304638 0.37042012 46.375 3.3125 C47.37160645 3.50585938 48.36821289 3.69921875 49.39501953 3.8984375 C97.79648057 13.46213524 141.99059771 35.87987765 177.375 70.3125 C178.37877686 71.27760498 178.37877686 71.27760498 179.40283203 72.26220703 C188.33991207 80.87657599 196.74206664 89.58564609 204.10107422 99.59423828 C205.39750666 101.34285682 206.72788718 103.06078803 208.06640625 104.77734375 C215.93067241 114.9920598 222.3161092 125.94975258 228.375 137.3125 C229.03846436 138.55314209 229.03846436 138.55314209 229.71533203 139.81884766 C241.23204842 161.72199262 248.9030584 186.01309889 253.375 210.3125 C253.53581055 211.11316895 253.69662109 211.91383789 253.86230469 212.73876953 C259.3544441 240.81662453 259.10896692 274.30227935 253.375 302.3125 C253.18164062 303.30910645 252.98828125 304.30571289 252.7890625 305.33251953 C244.67028127 346.42132055 227.30084885 383.51549494 201.375 416.3125 C200.56289063 417.35019531 199.75078125 418.38789063 198.9140625 419.45703125 C186.24907313 435.01858759 171.69874403 449.61464417 155.375 461.3125 C154.02974408 462.30180622 152.68470229 463.29140366 151.33984375 464.28125 C120.03306909 487.08129792 84.47487825 502.30078684 46.375 509.3125 C45.57433105 509.47331055 44.77366211 509.63412109 43.94873047 509.79980469 C15.88172956 515.289821 -17.62684244 515.06193715 -45.625 509.3125 C-46.63755859 509.11382324 -47.65011719 508.91514648 -48.69335938 508.71044922 C-89.78600049 500.49315205 -126.72136417 483.05232803 -159.625 457.3125 C-160.16415039 456.89339355 -160.70330078 456.47428711 -161.25878906 456.04248047 C-177.49886305 443.27946125 -192.56962343 428.08823511 -204.625 411.3125 C-205.4887527 410.14261544 -206.35335469 408.9733575 -207.21875 407.8046875 C-222.36207742 387.1786757 -234.4442165 364.56952873 -242.625 340.3125 C-243.03806396 339.08998535 -243.03806396 339.08998535 -243.45947266 337.84277344 C-246.69755506 328.07192323 -249.22985473 318.19031263 -251.375 308.125 C-251.57375732 307.20033936 -251.77251465 306.27567871 -251.97729492 305.32299805 C-255.26999027 289.11638823 -256.00030278 273.1821298 -255.9375 256.6875 C-255.93534485 255.66926147 -255.9331897 254.65102295 -255.93096924 253.60192871 C-255.88126609 238.9777116 -255.56707988 224.68445362 -252.625 210.3125 C-252.33496094 208.81759033 -252.33496094 208.81759033 -252.0390625 207.29248047 C-244.41040781 168.68418872 -228.69757683 132.53083121 -204.625 101.3125 C-203.66013672 100.05953125 -203.66013672 100.05953125 -202.67578125 98.78125 C-188.57295377 80.82715922 -172.21896589 63.63892592 -153.625 50.3125 C-153.08327148 49.920625 -152.54154297 49.52875 -151.98339844 49.125 C-121.06865283 26.84146078 -86.69401468 11.73961685 -49.375 4.0625 C-48.64442383 3.91127686 -47.91384766 3.76005371 -47.16113281 3.60424805 C-31.46684491 0.57387475 -15.9450952 -0.06071045 0 0 Z " fill="#00CCFE" transform="translate(255.625,-0.3125)"/>
<path d="M0 0 C66.52644273 0 129.01944923 23.31004404 177 70 C178.00377686 70.96510498 178.00377686 70.96510498 179.02783203 71.94970703 C187.96491207 80.56407599 196.36706664 89.27314609 203.72607422 99.28173828 C205.02250666 101.03035682 206.35288718 102.74828803 207.69140625 104.46484375 C215.55567241 114.6795598 221.9411092 125.63725258 228 137 C228.44230957 137.82709473 228.88461914 138.65418945 229.34033203 139.50634766 C240.85704842 161.40949262 248.5280584 185.70059889 253 210 C253.16081055 210.80066895 253.32162109 211.60133789 253.48730469 212.42626953 C258.9794441 240.50412453 258.73396692 273.98977935 253 302 C252.80664062 302.99660645 252.61328125 303.99321289 252.4140625 305.02001953 C244.29528127 346.10882055 226.92584885 383.20299494 201 416 C200.18789063 417.03769531 199.37578125 418.07539063 198.5390625 419.14453125 C185.87407313 434.70608759 171.32374403 449.30214417 155 461 C153.65474408 461.98930622 152.30970229 462.97890366 150.96484375 463.96875 C116.39651255 489.14411911 76.85463082 504.73664754 34.5625 510.8125 C33.33285522 510.99897095 33.33285522 510.99897095 32.07836914 511.18920898 C21.33465879 512.56770496 10.9956443 512 0 512 C0 472.4 0 432.8 0 392 C13.5070898 392 13.5070898 392 18.28125 392.62109375 C19.30734375 392.75193359 20.3334375 392.88277344 21.390625 393.01757812 C22.41671875 393.15615234 23.4428125 393.29472656 24.5 393.4375 C26.08554687 393.63956055 26.08554687 393.63956055 27.703125 393.84570312 C35.41659308 394.8490413 35.41659308 394.8490413 38.05688477 395.53222656 C51.73566764 398.8251714 67.01046604 395.76596934 78.875 388.75 C87.38916929 382.92516802 93.03099666 375.78350983 95.58203125 365.69921875 C97.92171545 350.58966935 95.07707011 336.42986177 86 324 C82.12879457 319.18539156 77.88650693 314.8028421 73.3671875 310.59765625 C61.52448521 299.46729696 55.05488431 288.87902262 51.56225586 273.01123047 C48.35238583 259.13411353 40.64214609 245.56207027 28.56640625 237.65625 C19.39655455 232.03790036 10.53685809 229.34152402 0 227 C0 152.09 0 77.18 0 0 Z " fill="#00A8E8" transform="translate(256,0)"/>
<path d="M0 0 C1.0003125 0.50917969 2.000625 1.01835937 3.03125 1.54296875 C18.23507662 9.76583043 26.55223584 22.3520089 31.99609375 38.59375 C32.922205 41.73604186 33.67223369 44.86428204 34.375 48.0625 C37.47270493 60.83982854 44.56826296 69.36514745 54 78.125 C64.42134001 87.88800267 71.83739975 97.19180456 76 111 C76.29003906 111.91072266 76.29003906 111.91072266 76.5859375 112.83984375 C78.7480489 124.11953811 77.33718061 135.90355002 71.3125 145.6875 C63.82630761 156.08397257 52.6519944 162.81205035 40 165 C36.84792266 165.28577092 33.72626129 165.33269488 30.5625 165.3125 C29.6950415 165.31048584 28.82758301 165.30847168 27.93383789 165.30639648 C20.79450579 165.19762279 14.06615582 164.21999417 7.08984375 162.75390625 C-2.94682996 160.77231609 -13.14144825 160.81363831 -23.33178711 160.81469727 C-25.66604115 160.81252002 -27.99981396 160.79432364 -30.33398438 160.77539062 C-41.86989112 160.73247991 -53.46346118 161.20363776 -64.6875 164.125 C-78.05884521 167.33412285 -91.84796777 164.56207113 -103.6953125 158.0390625 C-113.22767134 152.15739428 -119.83487539 143.46125385 -122.63671875 132.51171875 C-124.83835251 117.28967031 -120.7901868 103.47583599 -112 91 C-107.47665656 85.32954968 -102.48284685 80.460226 -96.9765625 75.765625 C-87.04121485 66.89057137 -81.24529821 56.22048081 -78.3984375 43.26171875 C-74.77879073 26.79886746 -66.50767602 14.22789749 -53.1875 4.0625 C-38.23984122 -5.4369467 -16.10740755 -8.86430383 0 0 Z " fill="#FEFEFF" transform="translate(276,232)"/>
<path d="M0 0 C13.82430227 0 25.98947913 5.10741313 36.25 14.625 C46.0268166 25.19453146 51.32163527 38.16694794 54.375 52.0625 C57.47270493 64.83982854 64.56826296 73.36514745 74 82.125 C84.42134001 91.88800267 91.83739975 101.19180456 96 115 C96.29003906 115.91072266 96.29003906 115.91072266 96.5859375 116.83984375 C98.7480489 128.11953811 97.33718061 139.90355002 91.3125 149.6875 C83.82630761 160.08397257 72.6519944 166.81205035 60 169 C56.84792266 169.28577092 53.72626129 169.33269488 50.5625 169.3125 C49.6950415 169.31048584 48.82758301 169.30847168 47.93383789 169.30639648 C40.79450579 169.19762279 34.06615582 168.21999417 27.08984375 166.75390625 C17.80515135 164.89742987 8.24614199 164.77461316 -1.1875 164.4375 C-2.90163086 164.37272461 -2.90163086 164.37272461 -4.65039062 164.30664062 C-7.43350811 164.20183704 -10.21669465 164.09966701 -13 164 C-13 163.67 -13 163.34 -13 163 C-8.71 163 -4.42 163 0 163 C0 109.21 0 55.42 0 0 Z " fill="#D6F2FE" transform="translate(256,228)"/>
<path d="M0 0 C2.89046326 1.79246261 5.46443981 3.73740681 8 6 C8.86625 6.763125 9.7325 7.52625 10.625 8.3125 C17.29576941 15.86100223 20.46019229 23.27058277 23 33 C23.1959375 33.65355469 23.391875 34.30710938 23.59375 34.98046875 C26.9833803 51.83084246 21.27735301 69.6911535 12.5625 84 C4.93014961 95.24067291 -6.25943176 103.89663872 -19.8125 106.55078125 C-32.89994572 108.39521294 -43.98030125 106.55642438 -54.8046875 98.81640625 C-66.28430937 89.31814261 -71.90561155 77.628248 -74 63 C-75.37870021 44.01926424 -70.65677987 26.90976192 -58.16015625 12.24609375 C-42.50551138 -4.03133989 -20.72491229 -10.8748853 0 0 Z " fill="#D5F2FE" transform="translate(337,120)"/>
<path d="M0 0 C14.69324405 8.30942147 24.66244622 23.82342228 29.41015625 39.73828125 C31.83532402 50.96033088 32.16782042 64.42488339 27.47265625 75.05078125 C27.14394531 75.86417969 26.81523437 76.67757812 26.4765625 77.515625 C21.30177399 89.13651685 12.6651453 97.0547075 1.109375 102.078125 C-11.47487721 106.54749117 -24.53292801 104.26743757 -36.46484375 99.05078125 C-51.33582601 91.14169196 -59.92540839 77.50227329 -65.52734375 62.05078125 C-65.84832031 61.21417969 -66.16929688 60.37757813 -66.5 59.515625 C-71.27149833 45.15674397 -69.5327354 28.79707108 -62.90234375 15.42578125 C-49.17473655 -8.1601321 -22.75875814 -12.10598279 0 0 Z " fill="#FDFEFF" transform="translate(154.52734375,213.94921875)"/>
<path d="M0 0 C11.06166509 6.765141 17.97910928 17.21823095 21.6875 29.5078125 C25.86893904 47.42128433 21.03104968 65.40658504 11.54296875 80.71484375 C8.80654749 84.3713509 5.846749 87.56838637 2.54296875 90.71484375 C1.88425781 91.3696875 1.22554688 92.02453125 0.546875 92.69921875 C-8.81528459 101.51509538 -20.80667397 105.7131345 -33.58203125 106.08984375 C-44.92050505 105.73551644 -54.67114155 101.204715 -63.14453125 93.71484375 C-67.94870338 88.59266495 -70.68124429 82.07691878 -73.45703125 75.71484375 C-73.82183594 74.89113281 -74.18664062 74.06742187 -74.5625 73.21875 C-79.59122548 59.59633403 -77.0176622 42.16882158 -71.14941406 29.33935547 C-63.03345384 12.62552174 -50.70770316 2.35332098 -33.57421875 -4.42578125 C-22.18736424 -7.56501432 -10.28160472 -5.37781868 0 0 Z " fill="#D5F2FE" transform="translate(401.45703125,216.28515625)"/>
<path d="M0 0 C11.72659756 10.65076292 19.61399804 27.09894505 20.484375 42.83203125 C20.9053434 58.46353866 19.16643746 72.5597178 8.078125 84.484375 C7.51738281 85.15726562 6.95664063 85.83015625 6.37890625 86.5234375 C-0.6636409 94.40754689 -10.59286424 99.01904098 -21.12109375 99.6875 C-35.13257671 99.87578421 -47.72584568 96.00032552 -58.2421875 86.2890625 C-72.99452245 70.43887937 -77.82296052 51.81039208 -77.26953125 30.68359375 C-76.64984622 18.28767207 -70.97994092 6.58872507 -61.91015625 -1.91796875 C-42.43518584 -17.56681531 -18.9649668 -14.95611203 0 0 Z " fill="#FDFEFF" transform="translate(230.921875,127.515625)"/>
</svg>
